<svg xmlns="http://www.w3.org/2000/svg" xmlns:xlink="http://www.w3.org/1999/xlink" width="1248" zoomAndPan="magnify" viewBox="0 0 936 935.999989" height="1248" preserveAspectRatio="xMidYMid meet" version="1.0"><defs><clipPath id="68eb8ebd3f"><path d="M 131 783 L 935.792969 783 L 935.792969 935.65625 L 131 935.65625 Z M 131 783 " clip-rule="nonzero"/></clipPath><clipPath id="f3bba7a7e5"><path d="M 652 793 L 935.792969 793 L 935.792969 935.65625 L 652 935.65625 Z M 652 793 " clip-rule="nonzero"/></clipPath><clipPath id="c1ff43d745"><path d="M 215 757 L 344 757 L 344 935.65625 L 215 935.65625 Z M 215 757 " clip-rule="nonzero"/></clipPath><clipPath id="61de115fb0"><path d="M 762 555 L 935.792969 555 L 935.792969 894 L 762 894 Z M 762 555 " clip-rule="nonzero"/></clipPath></defs><g clip-path="url(#68eb8ebd3f)"><path fill="#95d0d8" d="M 974.449219 846.355469 C 974.449219 846.355469 922.578125 799.5625 818.941406 787.574219 C 715.304688 775.582031 641.476562 786.84375 554.941406 830.84375 C 468.410156 874.84375 466.929688 874.460938 372.75 882.109375 C 278.570312 889.753906 203.296875 895.558594 136.019531 953.011719 C 68.742188 1010.460938 715.359375 1096.53125 811.730469 1100.289062 C 908.101562 1104.050781 1140.03125 1111.238281 1152.316406 1078.734375 C 1164.601562 1046.234375 1180.535156 1006.941406 1163.980469 973.195312 C 1147.425781 939.449219 974.449219 846.355469 974.449219 846.355469 Z M 974.449219 846.355469 " fill-opacity="1" fill-rule="nonzero"/></g><path fill="#55a898" d="M 722.40625 905.90625 C 709.59375 900.476562 698 893.125 687.617188 883.859375 C 672.324219 869.589844 672.324219 859.167969 684.972656 859.863281 C 697.621094 860.554688 713.9375 880.921875 713.9375 880.921875 C 713.9375 880.921875 710.542969 859.023438 709.757812 854.859375 C 708.972656 850.699219 708.113281 850.609375 708.113281 850.609375 C 708.113281 850.609375 686.210938 853.984375 669.949219 843.726562 C 653.6875 833.472656 647.699219 823.050781 665.09375 821.5 C 682.488281 819.949219 702.640625 836.097656 702.640625 836.097656 L 684.386719 802.921875 C 684.386719 802.921875 656.242188 800.039062 643.628906 786.058594 C 631.019531 772.078125 630.855469 760.945312 646.421875 764.757812 C 661.992188 768.574219 674.222656 783.101562 674.222656 783.101562 L 664.621094 753.535156 C 664.621094 753.535156 646.789062 753.078125 634.46875 741.328125 C 622.148438 729.574219 618.933594 720.777344 625.46875 719.425781 C 632.003906 718.074219 639.285156 717.800781 649.195312 726.289062 C 659.109375 734.773438 662.15625 737.238281 662.15625 737.238281 C 662.15625 737.238281 660.058594 723.441406 653.15625 716.871094 C 646.257812 710.300781 638.226562 705.445312 631.65625 692.414062 C 625.085938 679.386719 629.101562 673.398438 639.050781 676.464844 C 648.996094 679.53125 654.507812 686.101562 660.058594 701.03125 C 663.332031 709.753906 665.945312 718.671875 667.90625 727.785156 C 667.90625 727.785156 668.871094 709.664062 678.636719 700.007812 C 688.402344 690.351562 689.042969 685.644531 691.851562 695.863281 C 694.664062 706.085938 693.3125 718.84375 688.53125 726.050781 C 683.75 733.257812 672.25 741.5625 672.25 741.5625 L 679.550781 773.9375 C 679.550781 773.9375 682.304688 755.414062 689.898438 745.011719 C 697.492188 734.609375 701.144531 730.59375 704.136719 736.910156 C 707.128906 743.222656 708.152344 755.488281 704.648438 766.585938 C 701.140625 777.679688 686.210938 790.035156 686.210938 790.035156 L 708.113281 828.855469 C 708.113281 828.855469 705.285156 809.875 711.21875 798.085938 C 717.148438 786.292969 718.773438 782.84375 718.773438 782.84375 C 718.773438 782.84375 728.230469 792.644531 730.417969 805.421875 C 732.609375 818.195312 717.222656 846.375 717.222656 846.375 L 722.515625 880.394531 C 723.4375 873.195312 725.648438 866.421875 729.140625 860.0625 C 735.144531 848.621094 745.019531 839.457031 750.332031 842.066406 C 755.644531 844.675781 754.128906 860.410156 748.910156 872.546875 C 743.6875 884.683594 724.980469 894.152344 724.980469 894.152344 Z M 722.40625 905.90625 " fill-opacity="1" fill-rule="nonzero"/><g clip-path="url(#f3bba7a7e5)"><path fill="#59a1af" d="M 986.1875 793.851562 C 986.1875 793.851562 933.601562 793.265625 897.863281 822.503906 C 876.25 840.195312 856.175781 859.488281 837.632812 880.375 C 837.632812 880.375 765.863281 873.894531 729.46875 886.015625 C 693.074219 898.132812 662.066406 928.628906 653.03125 945.910156 C 643.996094 963.195312 912.628906 999.730469 912.628906 999.730469 C 912.628906 999.730469 1063.609375 970.714844 1064.011719 968.886719 C 1064.414062 967.0625 1058.882812 837.722656 1055.195312 829.273438 C 1051.511719 820.824219 986.1875 793.851562 986.1875 793.851562 Z M 986.1875 793.851562 " fill-opacity="1" fill-rule="nonzero"/></g><g clip-path="url(#c1ff43d745)"><path fill="#438b97" d="M 323.125 978.25 C 323.125 978.25 338.398438 937.863281 342.652344 911.054688 C 346.90625 884.242188 336.375 888.367188 328.050781 896.050781 C 319.726562 903.734375 307.117188 936.859375 307.117188 936.859375 C 307.117188 936.859375 298.847656 910.488281 295.199219 905.121094 C 293.476562 902.746094 291.960938 900.246094 290.652344 897.621094 C 290.652344 897.621094 311.167969 882.566406 319.199219 860.828125 C 327.230469 839.09375 321.023438 814.472656 319.855469 813.816406 C 318.6875 813.160156 300.765625 822.632812 292.058594 843.964844 L 279.027344 875.976562 C 279.027344 875.976562 275.722656 848.839844 277.96875 829.21875 C 280.210938 809.601562 266.25 785.417969 254.386719 773.902344 C 248.050781 767.5625 241.070312 762.03125 233.449219 757.3125 C 233.449219 757.3125 230.273438 792.609375 235.277344 810.914062 C 240.277344 829.21875 263.859375 844.894531 264.480469 856.230469 C 265.101562 867.5625 273.039062 887.839844 273.039062 887.839844 C 263.117188 877.167969 252.167969 867.683594 240.1875 859.386719 C 221.734375 846.996094 214.761719 854.113281 215.945312 856.355469 C 217.132812 858.601562 219.105469 894.152344 248.089844 904.957031 C 277.074219 915.761719 279.957031 906.929688 284.832031 917.988281 C 289.703125 929.046875 306.441406 965.4375 306.441406 965.4375 Z M 323.125 978.25 " fill-opacity="1" fill-rule="nonzero"/></g><path fill="#bf87d7" d="M 458.117188 747.933594 C 458.117188 745.542969 460.507812 784.25 444.355469 798.832031 C 428.199219 813.414062 421.886719 796.496094 426.777344 778.757812 C 428.246094 773.496094 429.035156 768.136719 429.144531 762.675781 C 429.25 757.210938 428.675781 751.824219 427.414062 746.507812 C 427.414062 746.507812 421.683594 775.945312 401.863281 785.417969 C 382.039062 794.890625 369.921875 790.417969 366.472656 784.378906 C 363.023438 778.335938 362.730469 769.777344 376.253906 764.304688 C 389.78125 758.828125 397.390625 741.835938 394.050781 736.105469 C 390.710938 730.375 372.476562 720.394531 364.484375 701.046875 C 356.488281 681.703125 350.554688 655.257812 367.109375 629.652344 C 383.664062 604.046875 403.613281 591.894531 438.914062 593.863281 C 474.214844 595.835938 497.796875 618.792969 503.273438 648.851562 C 508.746094 678.910156 500.535156 688.765625 509.496094 697.871094 C 518.457031 706.980469 528.09375 702.144531 535.210938 696.757812 C 535.875 696.199219 536.585938 695.714844 537.347656 695.296875 C 538.109375 694.882812 538.902344 694.542969 539.730469 694.289062 C 540.558594 694.03125 541.402344 693.859375 542.265625 693.769531 C 543.125 693.683594 543.988281 693.679688 544.851562 693.765625 C 545.714844 693.851562 546.558594 694.019531 547.386719 694.277344 C 548.21875 694.53125 549.011719 694.863281 549.773438 695.277344 C 550.535156 695.691406 551.25 696.175781 551.914062 696.734375 C 552.578125 697.289062 553.179688 697.90625 553.71875 698.585938 C 557.992188 703.367188 555.109375 721.34375 539.558594 729.609375 C 524.007812 737.878906 486.207031 726.398438 486.207031 726.398438 C 487.476562 730.777344 489.328125 734.898438 491.765625 738.753906 C 494.199219 742.609375 497.125 746.054688 500.535156 749.082031 C 511.484375 758.207031 514.625 763.335938 511.484375 772.714844 C 508.34375 782.097656 498.269531 782.789062 484.890625 774.105469 C 471.511719 765.417969 458.117188 747.933594 458.117188 747.933594 Z M 458.117188 747.933594 " fill-opacity="1" fill-rule="nonzero"/><path fill="#583862" d="M 409.566406 676.28125 C 409.566406 676.867188 409.507812 677.445312 409.394531 678.019531 C 409.28125 678.59375 409.109375 679.152344 408.886719 679.691406 C 408.664062 680.230469 408.390625 680.746094 408.0625 681.230469 C 407.738281 681.714844 407.371094 682.167969 406.957031 682.582031 C 406.542969 682.992188 406.09375 683.363281 405.605469 683.6875 C 405.121094 684.011719 404.605469 684.285156 404.066406 684.511719 C 403.527344 684.734375 402.96875 684.902344 402.394531 685.015625 C 401.820312 685.132812 401.242188 685.1875 400.65625 685.1875 C 400.074219 685.1875 399.492188 685.132812 398.921875 685.015625 C 398.347656 684.902344 397.789062 684.734375 397.25 684.511719 C 396.710938 684.285156 396.195312 684.011719 395.710938 683.6875 C 395.222656 683.363281 394.773438 682.992188 394.359375 682.582031 C 393.945312 682.167969 393.578125 681.714844 393.253906 681.230469 C 392.925781 680.746094 392.652344 680.230469 392.429688 679.691406 C 392.207031 679.152344 392.035156 678.59375 391.921875 678.019531 C 391.808594 677.445312 391.75 676.867188 391.75 676.28125 C 391.75 675.699219 391.808594 675.117188 391.921875 674.546875 C 392.035156 673.972656 392.207031 673.414062 392.429688 672.875 C 392.652344 672.335938 392.925781 671.820312 393.253906 671.335938 C 393.578125 670.847656 393.945312 670.398438 394.359375 669.984375 C 394.773438 669.570312 395.222656 669.203125 395.710938 668.878906 C 396.195312 668.550781 396.710938 668.277344 397.25 668.054688 C 397.789062 667.832031 398.347656 667.660156 398.921875 667.546875 C 399.492188 667.433594 400.074219 667.375 400.65625 667.375 C 401.242188 667.375 401.820312 667.433594 402.394531 667.546875 C 402.96875 667.660156 403.527344 667.832031 404.066406 668.054688 C 404.605469 668.277344 405.121094 668.550781 405.605469 668.878906 C 406.09375 669.203125 406.542969 669.570312 406.957031 669.984375 C 407.371094 670.398438 407.738281 670.847656 408.0625 671.335938 C 408.390625 671.820312 408.664062 672.335938 408.886719 672.875 C 409.109375 673.414062 409.28125 673.972656 409.394531 674.546875 C 409.507812 675.117188 409.566406 675.699219 409.566406 676.28125 Z M 409.566406 676.28125 " fill-opacity="1" fill-rule="nonzero"/><path fill="#583862" d="M 465.652344 651.808594 C 465.652344 652.347656 465.601562 652.882812 465.496094 653.414062 C 465.390625 653.945312 465.234375 654.460938 465.027344 654.957031 C 464.820312 655.457031 464.566406 655.933594 464.265625 656.382812 C 463.964844 656.832031 463.625 657.246094 463.242188 657.628906 C 462.859375 658.011719 462.445312 658.351562 461.996094 658.652344 C 461.546875 658.953125 461.070312 659.207031 460.574219 659.414062 C 460.074219 659.621094 459.558594 659.777344 459.027344 659.882812 C 458.496094 659.988281 457.960938 660.039062 457.421875 660.039062 C 456.882812 660.039062 456.347656 659.988281 455.816406 659.882812 C 455.285156 659.777344 454.769531 659.621094 454.273438 659.414062 C 453.773438 659.207031 453.296875 658.953125 452.847656 658.652344 C 452.398438 658.351562 451.984375 658.011719 451.601562 657.628906 C 451.21875 657.246094 450.878906 656.832031 450.578125 656.382812 C 450.277344 655.933594 450.023438 655.457031 449.816406 654.957031 C 449.609375 654.460938 449.453125 653.945312 449.347656 653.414062 C 449.242188 652.882812 449.191406 652.347656 449.191406 651.808594 C 449.191406 651.269531 449.242188 650.734375 449.347656 650.203125 C 449.453125 649.671875 449.609375 649.160156 449.816406 648.660156 C 450.023438 648.160156 450.277344 647.6875 450.578125 647.234375 C 450.878906 646.785156 451.21875 646.371094 451.601562 645.988281 C 451.984375 645.605469 452.398438 645.265625 452.847656 644.964844 C 453.296875 644.664062 453.773438 644.410156 454.273438 644.203125 C 454.769531 643.996094 455.285156 643.839844 455.816406 643.738281 C 456.347656 643.632812 456.882812 643.578125 457.421875 643.578125 C 457.960938 643.578125 458.496094 643.632812 459.027344 643.738281 C 459.558594 643.839844 460.074219 643.996094 460.574219 644.203125 C 461.070312 644.410156 461.546875 644.664062 461.996094 644.964844 C 462.445312 645.265625 462.859375 645.605469 463.242188 645.988281 C 463.625 646.371094 463.964844 646.785156 464.265625 647.234375 C 464.566406 647.6875 464.820312 648.160156 465.027344 648.660156 C 465.234375 649.160156 465.390625 649.671875 465.496094 650.203125 C 465.601562 650.734375 465.652344 651.269531 465.652344 651.808594 Z M 465.652344 651.808594 " fill-opacity="1" fill-rule="nonzero"/><path fill="#583862" d="M 436.230469 698.019531 C 434.398438 698.011719 432.601562 697.75 430.847656 697.226562 C 429.089844 696.703125 427.441406 695.945312 425.902344 694.953125 C 425.613281 694.65625 425.378906 694.320312 425.203125 693.949219 C 425.027344 693.574219 424.917969 693.179688 424.875 692.769531 C 424.835938 692.359375 424.863281 691.949219 424.957031 691.546875 C 425.054688 691.144531 425.214844 690.769531 425.4375 690.421875 C 425.660156 690.074219 425.9375 689.773438 426.261719 689.519531 C 426.589844 689.265625 426.949219 689.074219 427.339844 688.941406 C 427.730469 688.808594 428.132812 688.742188 428.546875 688.75 C 428.960938 688.753906 429.363281 688.824219 429.753906 688.964844 C 430.152344 689.234375 430.570312 689.476562 431 689.691406 C 431.433594 689.910156 431.875 690.097656 432.332031 690.257812 C 432.785156 690.417969 433.25 690.550781 433.722656 690.652344 C 434.195312 690.753906 434.667969 690.828125 435.152344 690.871094 C 435.632812 690.914062 436.113281 690.925781 436.59375 690.90625 C 437.078125 690.890625 437.558594 690.84375 438.035156 690.765625 C 438.511719 690.6875 438.980469 690.578125 439.441406 690.441406 C 439.90625 690.304688 440.359375 690.140625 440.800781 689.949219 C 441.242188 689.753906 441.671875 689.535156 442.085938 689.289062 C 442.5 689.042969 442.898438 688.769531 443.277344 688.472656 C 443.660156 688.175781 444.019531 687.855469 444.359375 687.515625 C 444.703125 687.171875 445.019531 686.808594 445.3125 686.429688 C 445.609375 686.046875 445.878906 685.648438 446.125 685.230469 C 446.371094 684.816406 446.589844 684.386719 446.78125 683.945312 C 446.972656 683.5 447.132812 683.046875 447.269531 682.582031 C 447.402344 682.121094 447.507812 681.648438 447.585938 681.171875 C 447.746094 680.792969 447.964844 680.449219 448.242188 680.140625 C 448.523438 679.835938 448.84375 679.582031 449.207031 679.386719 C 449.570312 679.1875 449.957031 679.058594 450.367188 678.992188 C 450.777344 678.925781 451.183594 678.929688 451.59375 679.003906 C 452 679.078125 452.382812 679.214844 452.742188 679.417969 C 453.105469 679.621094 453.421875 679.878906 453.695312 680.191406 C 453.964844 680.503906 454.179688 680.851562 454.335938 681.234375 C 454.488281 681.621094 454.574219 682.019531 454.59375 682.433594 C 454.328125 683.964844 453.882812 685.441406 453.253906 686.863281 C 452.628906 688.285156 451.835938 689.605469 450.878906 690.832031 C 449.925781 692.058594 448.835938 693.148438 447.609375 694.105469 C 446.386719 695.0625 445.0625 695.855469 443.640625 696.484375 C 441.277344 697.507812 438.808594 698.019531 436.230469 698.019531 Z M 436.230469 698.019531 " fill-opacity="1" fill-rule="nonzero"/><g clip-path="url(#61de115fb0)"><path fill="#438b97" d="M 864.664062 881.542969 C 846.996094 896.144531 842.304688 896.144531 817.316406 889.9375 C 792.332031 883.734375 772.910156 866.429688 765.683594 845.207031 C 758.453125 823.980469 764.039062 804.765625 771.761719 802.136719 C 779.480469 799.507812 788.863281 800.820312 793.664062 814.636719 C 798.460938 828.453125 809.613281 853.273438 809.613281 853.273438 L 820.804688 813.121094 C 820.804688 813.121094 792.511719 795.859375 790.046875 780.5625 C 787.585938 765.269531 802.058594 725.648438 802.058594 725.648438 C 802.058594 725.648438 806.820312 722.855469 821.132812 732.949219 C 835.441406 743.042969 834.949219 751.527344 834.949219 763.699219 C 834.984375 770.949219 833.71875 777.964844 831.152344 784.742188 C 831.152344 784.742188 841.027344 758.117188 847.433594 743.808594 C 853.839844 729.5 855.007812 727.035156 855.007812 727.035156 C 855.007812 727.035156 828.359375 707.472656 823.101562 687.085938 C 817.847656 666.703125 825.039062 647.355469 829.363281 649.671875 C 833.6875 651.992188 843.492188 655.695312 852.050781 672.46875 C 857.285156 682.855469 861.015625 693.757812 863.238281 705.171875 C 863.238281 705.171875 871.671875 673.453125 872.511719 658.523438 C 872.511719 658.523438 853.949219 649.199219 843.710938 631.40625 C 833.46875 613.613281 837.285156 590.742188 839.109375 586.964844 C 840.933594 583.1875 846.320312 582.839844 857.488281 593.519531 C 868.660156 604.195312 876.964844 632.042969 876.964844 632.042969 C 876.964844 632.042969 879.996094 596.859375 890.144531 577.019531 C 900.292969 557.183594 920.039062 551.835938 925.570312 557.546875 C 931.101562 563.257812 929.550781 583.535156 918.140625 597.933594 C 906.734375 612.332031 892.773438 618.777344 891.511719 626.023438 C 890.253906 633.265625 887.515625 646.097656 887.515625 646.097656 C 887.515625 646.097656 900.019531 631.242188 912.0625 623.265625 C 924.109375 615.289062 941.523438 614.578125 944.5 620.363281 C 947.472656 626.148438 934.625 650.074219 919.238281 660.039062 C 903.851562 670.003906 882.898438 674.273438 882.898438 674.273438 L 872.75 718.074219 C 872.75 718.074219 887.351562 700.136719 904.542969 692.523438 C 921.738281 684.914062 930.734375 682.378906 929.203125 695.882812 C 927.667969 709.386719 915.96875 727.308594 900.65625 736.378906 C 885.34375 745.449219 857.929688 749.886719 857.929688 749.886719 L 842.613281 792.738281 C 842.613281 792.738281 848.328125 790.199219 860.554688 779.960938 C 872.785156 769.722656 892.714844 769.996094 900.875 774.707031 C 909.035156 779.414062 898.703125 796.808594 883.296875 807.554688 C 867.894531 818.304688 829.308594 822.886719 829.308594 822.886719 L 817.972656 862.199219 C 818.925781 862.480469 819.894531 862.613281 820.886719 862.589844 C 821.878906 862.566406 822.84375 862.390625 823.777344 862.0625 C 824.714844 861.734375 825.578125 861.273438 826.367188 860.671875 C 827.15625 860.070312 827.832031 859.363281 828.394531 858.546875 C 832.742188 852.742188 844.695312 839.328125 859.425781 833.542969 C 874.15625 827.757812 879.191406 835.261719 878.445312 848.621094 C 877.695312 861.976562 870.8125 876.378906 864.664062 881.542969 Z M 864.664062 881.542969 " fill-opacity="1" fill-rule="nonzero"/></g></svg>